<svg width="29" height="29" viewBox="0 0 29 29" fill="none" xmlns="http://www.w3.org/2000/svg">
<path d="M14.2998 0C15.0177 3.13804e-08 15.5995 0.581932 15.5996 1.2998V13H27.2998C28.0177 13 28.5995 13.5819 28.5996 14.2998C28.5996 15.0178 28.0178 15.5996 27.2998 15.5996H15.5996V27.2998C15.5996 28.0178 15.0178 28.5996 14.2998 28.5996C13.5819 28.5995 13 28.0177 13 27.2998V15.5996H1.2998C0.581925 15.5995 0 15.0177 0 14.2998C0.000114782 13.582 0.581996 13.0001 1.2998 13H13V1.2998C13.0001 0.581999 13.582 0.000108051 14.2998 0Z" fill="#F7B4D6"/>
</svg>
