<svg width="36" height="39" viewBox="0 0 36 39" fill="none" xmlns="http://www.w3.org/2000/svg">
<path d="M22.6016 33.5213C22.5969 32.5786 22.9695 31.6732 23.6361 31.0066C24.3027 30.34 25.2081 29.9675 26.1507 29.9721C26.7474 29.9881 27.3309 30.1514 27.8489 30.4476C29.5424 31.4233 31.706 30.8463 32.6887 29.1569L33.9115 27.1191C34.3848 26.3068 34.5147 25.3393 34.2724 24.4308C34.0303 23.5224 33.4358 22.7481 32.6208 22.2792C31.806 21.8104 31.2115 21.036 30.9692 20.1277C30.7271 19.2193 30.857 18.2518 31.3303 17.4394C31.6381 16.9021 32.0835 16.4566 32.6208 16.1488" stroke="#F7B4D6" stroke-width="2.78292" stroke-linecap="round" stroke-linejoin="round"/>
<path d="M7.94586 7.96346C8.46018 8.26873 9.04599 8.43276 9.64405 8.43897C11.5845 8.43918 13.1654 6.88095 13.1933 4.94068C13.1888 4.00094 13.5589 3.09813 14.2218 2.43203C14.8847 1.76593 15.7858 1.39144 16.7255 1.39146H19.052C20.0112 1.39107 20.9298 1.77895 21.5984 2.46676C22.267 3.15458 22.6288 4.08374 22.6012 5.04257C22.6075 5.64064 22.7715 6.22644 23.0767 6.74078C23.5513 7.54994 24.3281 8.13715 25.236 8.37289C26.144 8.60864 27.1084 8.47355 27.9166 7.99743C29.6145 7.02453 31.7796 7.60948 32.7564 9.30505L33.9113 11.3089V11.3259" stroke="#F7B4D6" stroke-width="2.78292" stroke-linecap="round" stroke-linejoin="round"/>
<path d="M3.10591 9.2711L1.86623 11.3089C0.890486 13.0024 1.46746 15.166 3.15686 16.1488C4.25501 16.7828 4.9315 17.9546 4.9315 19.2225C4.9315 20.4906 4.25501 21.6622 3.15686 22.2963C1.46959 23.2724 0.891989 25.4308 1.86623 27.1191L3.03799 29.14C3.49572 29.9658 4.26373 30.5755 5.17206 30.8335C6.08038 31.0916 7.05414 30.9773 7.87785 30.5156C8.6876 30.043 9.65253 29.9135 10.5582 30.156C11.4639 30.3983 12.2352 30.9924 12.7007 31.8061C13.006 32.3206 13.17 32.9063 13.1762 33.5044C13.1762 35.4645 14.7652 37.0535 16.7255 37.0535H19.052" stroke="#F7B4D6" stroke-width="2.78292" stroke-linecap="round" stroke-linejoin="round"/>
<path d="M17.8969 24.1133C20.5981 24.1133 22.7877 21.9236 22.7877 19.2225C22.7877 16.5213 20.5981 14.3317 17.8969 14.3317C15.1958 14.3317 13.0061 16.5213 13.0061 19.2225C13.0061 21.9236 15.1958 24.1133 17.8969 24.1133Z" stroke="#F7B4D6" stroke-width="2.78292" stroke-linecap="round" stroke-linejoin="round"/>
</svg>
